<?xml version="1.0" encoding="UTF-8" standalone="no"?>
<svg width="110px" height="32px" viewBox="0 0 110 32" version="1.1" xmlns="http://www.w3.org/2000/svg" xmlns:xlink="http://www.w3.org/1999/xlink" xmlns:sketch="http://www.bohemiancoding.com/sketch/ns">
    <!-- Generator: Sketch 3.3.3 (12081) - http://www.bohemiancoding.com/sketch -->
    <title>Imported Layers</title>
    <desc>Created with Sketch.</desc>
    <defs></defs>
    <g id="Page-1" stroke="none" stroke-width="1" fill="none" fill-rule="evenodd" sketch:type="MSPage">
        <g id="Artboard-1" sketch:type="MSArtboardGroup" fill="#FFFFFF">
            <g id="Imported-Layers" sketch:type="MSLayerGroup">
                <path d="M0.701944954,9.75354128 L2.96249541,9.75354128 L3.49093578,7.28748624 L6.83772477,6.20124771 L6.07442202,9.75354128 L8.86341284,9.75354128 L8.36433028,12.0140917 L5.57533945,12.0140917 L4.43038532,17.2397798 C4.37166972,17.5333578 4.28359633,17.944367 4.28359633,18.4140917 C4.28359633,19.1480367 4.7826789,19.5884037 5.48726606,19.5884037 C6.04506422,19.5884037 6.60286239,19.4709725 6.98451376,19.3241835 L6.45607339,21.7315229 C5.92763303,21.8489541 5.31111927,22.0251009 4.7826789,22.0251009 C2.66891743,22.0251009 1.17166972,21.2030826 1.17166972,18.8838165 C1.17166972,17.944367 1.34781651,17.0342752 1.5533211,16.0948257 L2.43405505,12.0434495 L0.173504587,12.0434495 L0.701944954,9.75354128" id="Fill-1" sketch:type="MSShapeGroup"></path>
                <path d="M10.2432294,11.3095046 C10.3313028,10.8397798 10.4193761,10.370055 10.5074495,9.98840367 L13.3845138,9.98840367 L13.0909358,11.6030826 L13.1496514,11.6030826 C14.0010275,10.370055 15.3514862,9.72418349 16.8193761,9.72418349 C18.2285505,9.72418349 19.6964404,10.5755596 19.8725872,12.0140917 L19.9313028,12.0140917 C20.7239633,10.4581284 22.4560734,9.72418349 24.1294679,9.72418349 C25.9202936,9.72418349 27.4468991,11.1920734 27.4468991,13.0122569 C27.4468991,14.0691376 27.1826789,15.2728073 26.9184587,16.2709725 L25.6560734,21.9957431 L22.5441468,21.9957431 L23.8065321,16.1535413 C23.9533211,15.4195963 24.1881835,14.304 24.1881835,13.5994128 C24.1881835,12.7186789 23.5129541,12.1608807 22.7202936,12.1608807 C20.5478165,12.1608807 20.0193761,14.6856514 19.6377248,16.3003303 L18.4046972,21.9957431 L15.2927706,21.9957431 L16.555156,16.1535413 C16.7313028,15.4195963 16.9661651,14.304 16.9661651,13.5994128 C16.9661651,12.7186789 16.2909358,12.1608807 15.4982752,12.1608807 C13.3845138,12.1608807 12.7973578,14.6856514 12.4157064,16.3003303 L11.1826789,21.9957431 L8.0413945,21.9957431 L10.2432294,11.3095046" id="Fill-2" sketch:type="MSShapeGroup"></path>
                <path d="M28.621211,31.9480367 L29.2964404,31.9480367 L36.4891009,0.124183486 L35.7845138,0.124183486 L28.621211,31.9480367" id="Fill-3" sketch:type="MSShapeGroup"></path>
                <path d="M40.0337615,10.0309725 L42.781945,10.0309725 C46.458422,10.0309725 48.2057982,12.3605138 48.2057982,15.9823853 C48.2057982,19.6224587 46.458422,22.0251009 42.8001468,22.0251009 L40.0337615,22.0251009 L40.0337615,10.0309725 L40.0337615,10.0309725 Z M42.7091376,21.3149358 C45.9308624,21.3149358 47.3321101,19.1128073 47.3321101,15.9823853 C47.3321101,12.8701651 45.9308624,10.7405505 42.7091376,10.7405505 L40.8710459,10.7405505 L40.8710459,21.3149358 L42.7091376,21.3149358 L42.7091376,21.3149358 Z" id="Fill-4" sketch:type="MSShapeGroup"></path>
                <path d="M52.9752661,10.0309725 L60.0733945,10.0309725 L60.0733945,10.7587523 L53.8122569,10.7587523 L53.8122569,15.2910092 L59.0904954,15.2910092 L59.0904954,16.018789 L53.8122569,16.018789 L53.8122569,21.2970275 L60.2554128,21.2970275 L60.2554128,22.0251009 L52.9752661,22.0251009 L52.9752661,10.0309725" id="Fill-5" sketch:type="MSShapeGroup"></path>
                <path d="M64.9696881,19.8593761 C65.8797798,20.8419817 67.1900183,21.4790459 68.6646606,21.4790459 C70.6119633,21.4790459 71.8314862,20.4961468 71.8314862,19.0766972 C71.8314862,17.5841468 70.757578,17.0926972 69.4834495,16.564844 L67.6635596,15.7457615 C66.5529541,15.2910092 65.0606972,14.5447339 65.0606972,12.7609541 C65.0606972,11.0317798 66.6257615,9.81225688 68.7189725,9.81225688 C70.2479266,9.81225688 71.467156,10.4675229 72.2501284,11.2502018 L71.7586789,11.8144587 C71.0124037,11.0681835 69.9931009,10.5767339 68.7189725,10.5767339 C67.0264954,10.5767339 65.8979817,11.4140183 65.8979817,12.7245505 C65.8979817,14.1078899 67.2085138,14.6357431 68.1547156,15.0358899 L69.9566972,15.8367706 C71.3946422,16.4374312 72.6684771,17.1834128 72.6684771,19.0217982 C72.6684771,20.8601835 71.085211,22.2435229 68.6646606,22.2435229 C66.8262752,22.2435229 65.4065321,21.4972477 64.423633,20.4415413 L64.9696881,19.8593761" id="Fill-6" sketch:type="MSShapeGroup"></path>
                <path d="M77.364844,21.2970275 L80.459156,21.2970275 L80.459156,10.7587523 L77.364844,10.7587523 L77.364844,10.0309725 L84.3904587,10.0309725 L84.3904587,10.7587523 L81.2961468,10.7587523 L81.2961468,21.2970275 L84.3904587,21.2970275 L84.3904587,22.0251009 L77.364844,22.0251009 L77.364844,21.2970275" id="Fill-7" sketch:type="MSShapeGroup"></path>
                <path d="M94.0374312,9.81225688 C95.6209908,9.81225688 96.6038899,10.5767339 97.2227523,11.2502018 L96.7313028,11.7962569 C96.1306422,11.122789 95.3115596,10.5767339 94.0374312,10.5767339 C91.3984587,10.5767339 89.7423853,12.669945 89.7423853,16.0005872 C89.7423853,19.3315229 91.3074495,21.4790459 93.9282202,21.4790459 C94.9839266,21.4790459 95.9668257,21.1514128 96.5310826,20.5692477 L96.5310826,16.8378716 L93.7646972,16.8378716 L93.7646972,16.128 L97.3501651,16.128 L97.3501651,20.8783853 C96.6220917,21.6792661 95.4207706,22.2435229 93.8739083,22.2435229 C90.8888073,22.2435229 88.8686972,19.8229725 88.8686972,16.0005872 C88.8686972,12.1966972 90.9434128,9.81225688 94.0374312,9.81225688" id="Fill-8" sketch:type="MSShapeGroup"></path>
                <path d="M101.846312,10.0309725 L102.72,10.0309725 L107.397284,18.5124404 L108.689908,20.8783853 L108.726312,20.8783853 C108.689908,19.7134679 108.617101,18.5667523 108.617101,17.4018349 L108.617101,10.0309725 L109.417688,10.0309725 L109.417688,22.0251009 L108.544,22.0251009 L103.866422,13.543633 L102.574385,11.1773945 L102.537982,11.1773945 C102.574385,12.3423119 102.647193,13.434422 102.647193,14.5990459 L102.647193,22.0251009 L101.846312,22.0251009 L101.846312,10.0309725" id="Fill-9" sketch:type="MSShapeGroup"></path>
            </g>
        </g>
    </g>
</svg>