<?xml version="1.0" encoding="utf-8"?>
<!-- Generator: Adobe Illustrator 19.0.0, SVG Export Plug-In . SVG Version: 6.00 Build 0)  -->
<!DOCTYPE svg PUBLIC "-//W3C//DTD SVG 1.1//EN" "http://www.w3.org/Graphics/SVG/1.1/DTD/svg11.dtd">
<svg version="1.1" id="Layer_1" xmlns="http://www.w3.org/2000/svg" xmlns:xlink="http://www.w3.org/1999/xlink" x="0px" y="0px"
	 viewBox="0 0 382.8 108.4" enable-background="new 0 0 382.8 108.4" xml:space="preserve">
<g>
	<g id="Page-1_4_" sketch:type="MSPage">
		<g id="logo_4_" sketch:type="MSLayerGroup">
			<g id="Group_4_" sketch:type="MSShapeGroup">
				<g id="Shape_10_" transform="translate(0.000000, 21.000000)">
					<path fill="#179BD7" d="M1.8,11.8h7.7l1.8-8.4l11.4-3.7l-2.6,12.1h9.5l-1.7,7.7h-9.5l-3.9,17.8c-0.2,1-0.5,2.4-0.5,4
						c0,2.5,1.7,4,4.1,4c1.9,0,3.8-0.4,5.1-0.9l-1.8,8.2c-1.8,0.4-3.9,1-5.7,1c-7.2,0-12.3-2.8-12.3-10.7c0-3.2,0.6-6.3,1.3-9.5
						l3-13.8H0L1.8,11.8L1.8,11.8z"/>
					<path fill="#179BD7" d="M34.3,17.1c0.3-1.6,0.6-3.2,0.9-4.5H45l-1,5.5h0.2c2.9-4.2,7.5-6.4,12.5-6.4c4.8,0,9.8,2.9,10.4,7.8
						h0.2c2.7-5.3,8.6-7.8,14.3-7.8c6.1,0,11.3,5,11.3,11.2c0,3.6-0.9,7.7-1.8,11.1l-4.3,19.5H76.2l4.3-19.9
						c0.5-2.5,1.3-6.3,1.3-8.7c0-3-2.3-4.9-5-4.9c-7.4,0-9.2,8.6-10.5,14.1l-4.2,19.4H51.5l4.3-19.9c0.6-2.5,1.4-6.3,1.4-8.7
						c0-3-2.3-4.9-5-4.9C45,20,43,28.6,41.7,34.1l-4.2,19.4H26.8L34.3,17.1L34.3,17.1z"/>
				</g>
				<path id="Shape_9_" fill="#179BD7" d="M96.9,108.4h2.3L123.7,0h-2.4L96.9,108.4L96.9,108.4z"/>
			</g>
		</g>
	</g>
	
		<text transform="matrix(1 0 0 1 129.8222 74.5997)" fill="#179BD7" font-family="'SourceCodePro-Light'" font-size="62px" letter-spacing="4">DESIGN</text>
</g>
</svg>
